<?xml version="1.0" standalone="no"?>
<!DOCTYPE svg PUBLIC "-//W3C//DTD SVG 20010904//EN"
 "http://www.w3.org/TR/2001/REC-SVG-20010904/DTD/svg10.dtd">
<svg version="1.0" xmlns="http://www.w3.org/2000/svg"
 width="900.000000pt" height="900.000000pt" viewBox="0 0 900.000000 900.000000"
 preserveAspectRatio="xMidYMid meet">
<metadata>
Created by potrace 1.15, written by Peter Selinger 2001-2017
</metadata>
<g transform="translate(0.000000,900.000000) scale(0.100000,-0.100000)"
fill="#000000" stroke="none">
<path d="M4310 8121 c-89 -24 -147 -52 -345 -166 -93 -54 -188 -108 -210 -121
-22 -12 -94 -54 -160 -92 -111 -65 -490 -283 -595 -343 -25 -14 -106 -61 -180
-104 -74 -43 -283 -164 -465 -268 -181 -104 -346 -200 -367 -213 -21 -13 -40
-24 -42 -24 -2 0 -49 -27 -104 -59 -55 -33 -142 -83 -193 -112 -109 -61 -220
-163 -283 -258 -47 -71 -66 -110 -99 -211 l-22 -65 0 -1585 0 -1585 22 -65
c33 -101 52 -140 99 -211 63 -95 174 -197 283 -258 51 -29 138 -79 193 -112
55 -32 102 -59 104 -59 2 0 21 -11 42 -24 21 -13 186 -109 367 -213 182 -104
391 -225 465 -268 74 -43 155 -90 180 -104 105 -60 484 -278 595 -343 66 -38
138 -80 160 -92 22 -13 117 -67 210 -121 280 -162 347 -185 535 -185 188 0
255 23 535 185 94 54 188 108 210 121 22 12 94 54 160 92 111 65 490 283 595
343 25 14 106 61 180 104 74 43 283 164 465 268 181 104 346 200 367 213 21
13 40 24 42 24 2 0 49 27 104 59 55 33 142 83 193 112 109 61 220 163 283 258
47 71 66 110 99 211 l22 65 0 1585 0 1585 -22 65 c-33 101 -52 140 -99 211
-63 95 -174 197 -283 258 -51 29 -138 79 -193 112 -55 32 -102 59 -104 59 -2
0 -21 11 -42 24 -21 13 -186 109 -367 213 -182 104 -391 225 -465 268 -74 43
-155 90 -180 104 -105 60 -484 278 -595 343 -66 38 -138 80 -160 92 -22 13
-116 67 -210 121 -202 117 -254 142 -349 166 -95 25 -285 25 -376 0z m-585
-1950 c41 -18 163 -134 703 -674 l652 -652 0 654 0 655 22 23 21 23 326 0
c292 0 335 -2 410 -20 250 -60 442 -252 501 -504 20 -84 21 -108 17 -1083 -3
-901 -4 -1004 -20 -1061 -114 -422 -442 -699 -862 -728 -99 -7 -177 8 -245 48
-19 12 -326 312 -682 667 l-648 646 0 -663 c0 -649 0 -662 -20 -682 -19 -19
-33 -20 -354 -20 -383 0 -430 6 -565 72 -119 57 -232 170 -290 289 -74 154
-72 114 -69 1225 l3 989 27 96 c48 176 139 330 269 455 85 81 136 117 235 167
199 100 444 134 569 78z"/>
</g>
</svg>
